<?xml version="1.0" encoding="utf-8"?>
<!-- Generator: Adobe Illustrator 19.1.0, SVG Export Plug-In . SVG Version: 6.00 Build 0)  -->
<svg version="1.1" id="Слой_1" xmlns="http://www.w3.org/2000/svg" xmlns:xlink="http://www.w3.org/1999/xlink" x="0px" y="0px"
	 viewBox="0 0 153 39" style="enable-background:new 0 0 153 39;" xml:space="preserve">
<path style="fill:#315398;" d="M63.2,9.5V11c0,0.8-0.3,1-1.1,1H53v5.5h7.7c0.8,0,1.1,0.3,1.1,1v1.5c0,0.8-0.3,1-1.1,1H53v7.8
	c0,0.8-0.3,1-1,1h-1.7c-0.8,0-1.1-0.3-1.1-1V9.5c0-0.8,0.3-1,1.1-1h12C63,8.5,63.2,8.8,63.2,9.5z"/>
<path style="fill:#315398;" d="M68.1,29.9h-1.6c-0.7,0-0.9-0.2-0.9-0.9V8.5c0-0.7,0.2-0.9,0.9-0.9h1.6c0.7,0,0.9,0.2,0.9,0.9V29
	C69,29.6,68.8,29.9,68.1,29.9z"/>
<path style="fill:#315398;" d="M85.7,15.2v15.2c0,3.9-1.9,6.6-6.6,6.6c-3.3,0-5.2-1.1-6.3-2.9c-0.4-0.7-0.3-1.1,0.4-1.5l1.1-0.6
	c0.7-0.4,1.1-0.3,1.5,0.4c0.6,1,1.5,1.5,3.2,1.5c2.1,0,3.2-1.1,3.2-3.3v-1.4c-0.9,0.2-2.1,0.4-3.6,0.4c-4.3,0-6.3-2.3-6.3-6.1v-8.3
	c0-0.7,0.2-0.9,0.9-0.9h1.7c0.7,0,0.9,0.2,0.9,0.9v8.2c0,2,1.1,3,3.3,3c1.3,0,2.3-0.2,3.1-0.4V15.2c0-0.7,0.2-0.9,0.9-0.9h1.6
	C85.4,14.3,85.7,14.5,85.7,15.2z"/>
<path style="fill:#315398;" d="M95.5,13.8c4.8,0,7,2.8,7,6.2v1.8c0,0.8-0.3,1.3-1.4,1.3H92v1.1c0,2,1.2,3,3.4,3
	c1.8,0,2.9-0.6,3.6-1.6c0.5-0.7,0.8-0.8,1.5-0.4l1.1,0.6c0.7,0.3,0.8,0.8,0.4,1.5c-1.1,1.8-3.1,2.9-6.5,2.9c-4.9,0-6.9-2.7-6.9-6.4
	v-3.6C88.5,16.1,90.9,13.8,95.5,13.8z M95.5,16.8c-2.3,0-3.5,1.1-3.5,3.1v0.7h7v-0.7C98.9,17.9,97.8,16.8,95.5,16.8z"/>
<path style="fill:#315398;" d="M112.7,13.8c0.7,0,0.9,0.2,0.9,0.9v1.3c0,0.7-0.2,0.9-0.9,0.9h-1.1c-1.2,0-2.1,0.1-2.9,0.4
	c-0.3,0.1-0.3,0.2-0.3,0.4V29c0,0.7-0.2,0.9-0.9,0.9h-1.7c-0.7,0-0.9-0.2-0.9-0.9V16.5c0-1,0.2-1.3,1.2-1.7c1.1-0.4,2.9-0.8,5.6-0.9
	H112.7z"/>
<path style="fill:#ff7c0a;" d="M136.1,9.5v19.3c0,0.8-0.2,1-1,1h-1.5c-0.8,0-1-0.3-1-1v-9.2c0-1.7,0.2-3.7,0.7-6H133
	c-0.8,2.3-1.5,3.8-2.5,5.5l-3,5.2c-0.3,0.5-0.6,0.7-1.2,0.7h-1c-0.6,0-0.8-0.1-1.2-0.7l-3-5.2c-1-1.7-1.6-3.1-2.3-5.5h-0.2
	c0.5,2.3,0.6,4.1,0.6,6v9.2c0,0.8-0.2,1-1,1h-1.4c-0.8,0-1.1-0.3-1.1-1V9.5c0-0.8,0.3-1,1.1-1h1.3c0.8,0,1.1,0.2,1.4,0.8l6.3,11.2
	l6.3-11.2c0.4-0.7,0.6-0.8,1.4-0.8h1.5C135.8,8.5,136.1,8.8,136.1,9.5z"/>
<path style="fill:#ff7c0a;" d="M146,13.8c4.8,0,7,2.8,7,6.2v1.8c0,0.8-0.3,1.3-1.4,1.3h-9.1v1.1c0,2,1.2,3,3.4,3
	c1.8,0,2.9-0.6,3.6-1.6c0.5-0.7,0.8-0.8,1.5-0.4l1.1,0.6c0.7,0.3,0.8,0.8,0.4,1.5c-1.1,1.8-3.1,2.9-6.5,2.9c-4.9,0-6.9-2.7-6.9-6.4
	v-3.6C139.1,16.1,141.5,13.8,146,13.8z M146,16.8c-2.3,0-3.5,1.1-3.5,3.1v0.7h7v-0.7C149.5,17.9,148.3,16.8,146,16.8z"/>
<path style="fill:#ff7c0a;" d="M19.6,12.9c-0.3,0.3-0.7,0.6-1,0.9c-1.5,1.3-2.9,2.7-4.4,4c-0.4,0.4-0.6,0.8-0.6,1.4
	c0,1.6,0,3.2,0,4.8c0,1.2,0.2,1.3,1.4,1.3c4,0,7.9,0,11.9,0c0.8,0,1.5,0.2,2.2,0.5c0.7,0.3,1.5,0.6,2.3,0.6c1.3,0,2.2-0.8,2.7-1.9
	c0.7-1.5,0.9-3,0.9-4.6c0-3-0.5-6-2.2-8.6c-2.8-4.5-6.7-7-12-7.6C12.3,3,5.3,9.2,4,16.6c-1.4,8.5,4.1,16.2,12.1,17.9
	c3.6,0.8,7.1,0.3,10.4-1.4c0.3-0.2,0.7-0.3,1-0.4c0.7-0.1,1.5,0.3,1.9,0.9c0.4,0.7,0.4,1.5-0.2,2.1c-0.3,0.3-0.6,0.5-1,0.7
	c-11.8,6-25.8-1.1-28-14c-1.7-10.2,5-19.9,15.1-22.1c10.8-2.3,21.3,4.8,23.1,15.7c0.5,3,0.5,6.1-0.6,9.1c-0.9,2.6-2.7,4.4-5.4,5
	c-1.6,0.3-3.2,0-4.7-0.7c-0.6-0.3-1.3-0.4-1.9-0.4c-3.6,0-7.3,0-10.9,0c-0.6,0-1.2,0-1.7-0.1c-1.9-0.4-3.3-2-3.3-3.9
	c-0.1-2.5,0-5,0-7.6c0-0.6,0.3-1.1,0.7-1.5c2.5-2.3,5-4.7,7.6-7c1-0.9,1.9-0.9,2.9,0c2.5,2.3,5,4.6,7.6,7c0.6,0.5,0.9,1.2,0.9,2
	c0,1.3,0,2.7,0,4c0,1.3-1,2.1-2.2,1.9c-0.9-0.1-1.5-0.9-1.6-1.9c0-1,0-2,0-2.9c0-0.3-0.1-0.8-0.4-1c-1.7-1.6-3.5-3.2-5.3-4.9
	C19.9,13.1,19.8,13,19.6,12.9z"/>
</svg>